<svg xmlns="http://www.w3.org/2000/svg" version="1.1" width="100" height="100" viewBox="0 0 100 100"><rect x="0" y="0" width="100" height="100" fill="#ffffff"/><g transform="scale(4.762)"><g transform="translate(0,0)"><path fill-rule="evenodd" d="M10 0L10 3L12 3L12 4L8 4L8 8L6 8L6 9L4 9L4 8L3 8L3 9L4 9L4 10L6 10L6 11L7 11L7 12L4 12L4 11L3 11L3 10L2 10L2 11L0 11L0 12L2 12L2 13L7 13L7 12L8 12L8 15L9 15L9 13L10 13L10 12L9 12L9 10L8 10L8 11L7 11L7 10L6 10L6 9L8 9L8 8L9 8L9 6L10 6L10 7L11 7L11 5L13 5L13 3L12 3L12 2L13 2L13 0L12 0L12 2L11 2L11 0ZM8 1L8 3L9 3L9 1ZM12 6L12 7L13 7L13 6ZM0 8L0 10L1 10L1 9L2 9L2 8ZM10 8L10 11L12 11L12 12L11 12L11 14L10 14L10 15L11 15L11 16L9 16L9 17L8 17L8 18L9 18L9 19L8 19L8 21L10 21L10 18L9 18L9 17L11 17L11 16L12 16L12 15L13 15L13 16L15 16L15 18L14 18L14 17L13 17L13 18L14 18L14 21L15 21L15 20L16 20L16 21L19 21L19 18L20 18L20 20L21 20L21 17L20 17L20 15L21 15L21 14L20 14L20 15L19 15L19 16L18 16L18 14L19 14L19 13L21 13L21 11L20 11L20 10L21 10L21 9L20 9L20 8L18 8L18 9L17 9L17 8L14 8L14 9L15 9L15 10L14 10L14 11L15 11L15 12L14 12L14 13L17 13L17 14L16 14L16 16L15 16L15 15L13 15L13 14L12 14L12 12L13 12L13 11L12 11L12 9L13 9L13 8ZM16 9L16 10L15 10L15 11L17 11L17 12L18 12L18 13L19 13L19 12L20 12L20 11L19 11L19 12L18 12L18 10L19 10L19 9L18 9L18 10L17 10L17 9ZM2 11L2 12L3 12L3 11ZM17 16L17 17L16 17L16 18L17 18L17 20L18 20L18 18L19 18L19 17L18 17L18 16ZM11 19L11 21L13 21L13 20L12 20L12 19ZM0 0L0 7L7 7L7 0ZM1 1L1 6L6 6L6 1ZM2 2L2 5L5 5L5 2ZM14 0L14 7L21 7L21 0ZM15 1L15 6L20 6L20 1ZM16 2L16 5L19 5L19 2ZM0 14L0 21L7 21L7 14ZM1 15L1 20L6 20L6 15ZM2 16L2 19L5 19L5 16Z" fill="#000000"/></g></g></svg>